<svg width="832" height="124" viewBox="0 0 832 124" fill="none" xmlns="http://www.w3.org/2000/svg">
<path d="M795.351 61.839C816.364 53.152 831.452 29.8977 831.452 2.64636H806.894C806.894 21.6193 793.556 37.057 777.163 37.057C760.77 37.057 747.417 21.6193 747.417 2.64636H722.858C722.858 29.9155 737.946 53.1697 758.959 61.839C737.946 70.526 722.858 93.7803 722.858 121.032H747.417C747.417 102.059 760.755 86.621 777.163 86.621C793.571 86.621 806.894 102.059 806.894 121.032H831.452C831.452 93.7625 816.364 70.5083 795.351 61.839Z" fill="#EDE9E4"/>
<path d="M542.247 2.73474H481.772V121.085H542.247C570.443 121.085 593.375 94.5437 593.375 61.9096C593.375 29.2755 570.443 2.73474 542.247 2.73474ZM542.247 92.6607H506.331V31.1586H542.247C556.89 31.1586 568.816 44.9441 568.816 61.9096C568.816 78.8751 556.905 92.6607 542.247 92.6607Z" fill="#EDE9E4"/>
<path d="M667.387 0H655.676C626.236 0 602.292 27.7132 602.292 61.7863C602.292 95.8594 626.236 123.573 655.676 123.573H667.387C696.826 123.573 720.77 95.8594 720.77 61.7863C720.77 27.7132 696.826 0 667.387 0ZM667.387 95.1488H655.676C639.789 95.1488 626.85 80.1907 626.85 61.7863C626.85 43.3819 639.774 28.4238 655.676 28.4238H667.387C683.273 28.4238 696.212 43.3819 696.212 61.7863C696.212 80.1907 683.288 95.1488 667.387 95.1488Z" fill="#EDE9E4"/>
<path d="M412.794 0C382.848 0 358.505 28.1929 358.505 62.8344V121.05H383.063V86.6394H442.54V121.05H467.099V62.8344C467.083 28.1929 442.724 0 412.794 0ZM412.794 28.4238C427.836 28.4238 440.269 41.4277 442.233 58.2156H383.355C385.319 41.4277 397.752 28.4238 412.794 28.4238Z" fill="#EDE9E4"/>
<path d="M169.177 0C139.231 0 114.872 28.1929 114.872 62.8522V121.068H139.43V86.6572H198.907V121.068H223.466V62.8522C223.466 28.1929 199.107 0 169.177 0ZM169.177 28.4238C184.219 28.4238 196.651 41.4277 198.616 58.2156H139.737C141.702 41.4277 154.135 28.4238 169.177 28.4238Z" fill="#EDE9E4"/>
<path d="M345.259 44.8912C345.259 21.6014 328.897 2.66406 308.774 2.66406H238.261V121.067H262.82V87.1361H290.524C307.424 87.1361 321.161 102.361 321.161 121.067H345.719C345.719 104.635 340.055 89.6765 330.831 78.5202C339.595 70.7924 345.274 58.6057 345.274 44.8912H345.259ZM262.82 58.6946V31.0701H308.774C315.359 31.0701 320.7 37.2701 320.7 44.8735C320.7 52.4768 315.344 58.6768 308.774 58.6768H262.82V58.6946Z" fill="#EDE9E4"/>
<path d="M70.513 2.66406H0V121.067H24.5583V87.1361H70.513C90.6355 87.1361 106.997 68.1988 106.997 44.909C106.997 21.6192 90.6355 2.66406 70.513 2.66406ZM70.513 58.7123H24.5583V31.0879H70.513C77.0977 31.0879 82.4391 37.2878 82.4391 44.8912C82.4391 52.4946 77.0824 58.6946 70.513 58.6946V58.7123Z" fill="#EDE9E4"/>
</svg>
